<svg width="461" height="254" viewBox="0 0 461 254" fill="none" xmlns="http://www.w3.org/2000/svg">
<path d="M262.255 130.76C262.255 141.08 262.04 151.4 261.61 161.72C261.323 175.193 261.18 185.37 261.18 192.25C261.18 195.69 261.395 199.13 261.825 202.57C261.252 203.86 257.525 204.505 250.645 204.505C249.928 204.505 248.567 204.577 246.56 204.72C244.697 205.007 243.048 205.15 241.615 205.15C235.452 205.15 232.37 203.215 232.37 199.345L232.585 168.815C232.585 160.788 232.155 152.905 231.295 145.165C230.578 137.282 228.93 133.34 226.35 133.34L226.135 133.125C224.415 132.265 222.408 131.835 220.115 131.835C216.675 131.835 213.88 132.695 211.73 134.415C211.73 143.732 211.515 153.048 211.085 162.365C210.942 165.518 210.798 170.033 210.655 175.91C210.512 181.643 210.44 186.66 210.44 190.96C210.44 195.117 210.727 198.843 211.3 202.14C210.727 203.717 206.785 204.505 199.475 204.505C198.902 204.505 197.683 204.577 195.82 204.72C194.1 205.007 192.452 205.15 190.875 205.15C184.855 205.15 181.845 203.215 181.845 199.345L182.06 170.105C182.06 163.655 181.773 157.85 181.2 152.69C180.913 150.397 180.77 148.748 180.77 147.745C180.483 144.162 180.125 141.438 179.695 139.575C179.265 137.568 178.333 135.633 176.9 133.77C175.753 133.77 173.532 133.125 170.235 131.835C164.788 131.835 161.133 133.627 159.27 137.21C157.407 140.65 156.475 144.95 156.475 150.11C156.475 156.13 156.69 162.15 157.12 168.17C157.407 176.197 157.55 182.217 157.55 186.23C157.55 188.237 157.407 190.96 157.12 194.4C156.833 197.84 156.69 200.492 156.69 202.355C156.26 203.215 154.827 203.86 152.39 204.29C149.953 204.863 147.588 205.15 145.295 205.15C144.005 205.15 142.07 205.007 139.49 204.72C136.91 204.433 134.903 204.29 133.47 204.29H128.095C128.095 188.953 127.88 173.545 127.45 158.065C127.307 153.048 127.163 145.81 127.02 136.35C126.877 126.89 126.805 118.577 126.805 111.41C126.805 100.947 127.45 95.4283 128.74 94.855C129.887 94.855 131.105 94.9983 132.395 95.285C133.685 95.4283 134.975 95.5 136.265 95.5C137.985 95.5 139.633 95.285 141.21 94.855C144.363 94.2817 147.875 93.995 151.745 93.995C155.042 93.995 156.977 94.2817 157.55 94.855C157.55 97.2917 157.693 100.803 157.98 105.39C166.867 98.7967 176.112 95.5 185.715 95.5C190.588 95.5 195.032 96.36 199.045 98.08C203.202 99.6567 206.283 102.093 208.29 105.39C211.157 103.957 213.235 102.81 214.525 101.95C218.538 99.8 221.907 98.2233 224.63 97.22C227.497 96.0733 230.937 95.5 234.95 95.5C243.263 95.5 249.355 96.8617 253.225 99.585C257.095 102.308 259.532 106.035 260.535 110.765C261.682 115.495 262.255 122.16 262.255 130.76ZM259.46 201.71C259.173 198.27 259.03 195.618 259.03 193.755C259.03 186.588 259.173 175.838 259.46 161.505C259.89 150.468 260.105 139.575 260.105 128.825C260.105 121.515 259.603 115.71 258.6 111.41C257.597 107.11 255.303 103.742 251.72 101.305C248.137 98.8683 242.618 97.65 235.165 97.65C230.578 97.65 226.135 98.5817 221.835 100.445C217.535 102.165 213.092 104.602 208.505 107.755L206.785 107.11C205.638 103.527 202.987 101.162 198.83 100.015C194.673 98.725 190.517 98.08 186.36 98.08C177.187 98.08 167.655 101.377 157.765 107.97L156.045 107.325C155.902 106.035 155.83 104.172 155.83 101.735C155.83 99.155 155.758 97.2917 155.615 96.145C153.752 96.145 150.813 96.4317 146.8 97.005C143.647 97.7217 140.708 98.08 137.985 98.08C136.552 98.08 134.975 98.0083 133.255 97.865C131.678 97.5783 130.532 97.3633 129.815 97.22C129.385 108.543 129.17 120.01 129.17 131.62C129.17 141.08 129.313 155.27 129.6 174.19C129.887 186.803 130.03 196.192 130.03 202.355C132.323 202.068 134.33 201.925 136.05 201.925C138.343 201.925 140.207 202.14 141.64 202.57C142.213 202.57 143.862 202.57 146.585 202.57C149.452 202.57 152.103 202.212 154.54 201.495L154.755 191.175C155.042 186.302 155.185 182.718 155.185 180.425C155.185 176.268 154.97 171.968 154.54 167.525C154.397 166.092 154.253 164.228 154.11 161.935C153.967 159.642 153.895 156.918 153.895 153.765C153.895 146.025 154.97 140.148 157.12 136.135C159.27 131.978 163.283 129.9 169.16 129.9C173.317 129.9 175.897 130.473 176.9 131.62C180.053 132.337 181.988 135.92 182.705 142.37C183.565 148.677 183.995 156.56 183.995 166.02V179.35C183.995 182.217 183.923 184.438 183.78 186.015L183.565 193.755C183.565 196.908 183.78 199.775 184.21 202.355L195.175 202.57C200.335 202.57 204.922 202.283 208.935 201.71C208.505 198.27 208.29 194.83 208.29 191.39C208.29 184.94 208.362 179.35 208.505 174.62C208.648 169.89 208.792 165.877 208.935 162.58C209.365 153.12 209.58 143.588 209.58 133.985C210.297 132.552 211.658 131.477 213.665 130.76C215.672 130.043 217.75 129.685 219.9 129.685C224.487 129.685 227.783 131.262 229.79 134.415C231.94 137.425 233.23 141.367 233.66 146.24C234.233 150.97 234.52 157.563 234.52 166.02V179.35C234.52 182.217 234.448 184.438 234.305 186.015L234.09 193.755C234.09 196.908 234.305 199.775 234.735 202.355L245.7 202.57C250.86 202.57 255.447 202.283 259.46 201.71Z" fill="#ED4C4C"/>
<path d="M27.825 171.15V203H14V81.375L27.825 79.45V154.7L66.325 115.85L74.725 124.775L48.825 150.5C54.5417 159.25 60.375 168 66.325 176.75C72.275 185.5 78.1083 194.25 83.825 203H67.55C62.8833 195.767 58.2167 188.533 53.55 181.3C48.8833 173.95 44.2167 166.658 39.55 159.425L27.825 171.15ZM107.129 101.325C104.445 101.325 102.229 100.45 100.479 98.7C98.7287 96.8333 97.8537 94.5583 97.8537 91.875C97.737 89.3083 98.5537 87.15 100.304 85.4C102.17 83.5333 104.445 82.6 107.129 82.6C109.695 82.6 111.912 83.5333 113.779 85.4C115.762 87.15 116.754 89.3083 116.754 91.875C116.754 94.5583 115.762 96.8333 113.779 98.7C111.912 100.45 109.695 101.325 107.129 101.325ZM100.304 203V118.125H114.304V203H100.304ZM206.928 129.5C210.545 125.65 215.095 122.383 220.578 119.7C226.061 117.017 231.311 115.675 236.328 115.675C246.128 115.675 253.361 118.533 258.028 124.25C262.695 129.85 265.028 136.908 265.028 145.425V202.825H251.028V147.35C251.028 141.633 249.628 136.908 246.828 133.175C244.028 129.442 239.711 127.517 233.878 127.4C230.145 127.4 226.12 128.45 221.803 130.55C217.603 132.65 213.636 135.625 209.903 139.475C210.02 140.525 210.078 141.575 210.078 142.625C210.195 143.558 210.253 144.492 210.253 145.425V202.825H196.253V147.35C196.253 141.633 194.853 136.908 192.053 133.175C189.37 129.442 185.17 127.517 179.453 127.4C175.603 127.4 171.578 128.45 167.378 130.55C163.178 132.533 159.211 135.508 155.478 139.475V203H141.653V118.125H150.053L154.078 127.75C157.811 124.25 162.186 121.392 167.203 119.175C172.22 116.842 177.061 115.675 181.728 115.675C188.028 115.675 193.278 116.958 197.478 119.525C201.795 121.975 204.945 125.3 206.928 129.5Z" fill="#FFA899"/>
</svg>
